<svg
        width="18"
        height="11"
        viewBox="0 0 18 11"
        fill="none"
        xmlns="http://www.w3.org/2000/svg"
>
    <path
            d="M12.344 2.77254L13.3653 4.0192C13.4853 4.1632 13.5907 4.27654 13.6307 4.34188C13.936 4.66187 14.1054 5.08853 14.1054 5.52986C14.0774 6.05653 13.7493 6.4112 13.444 6.7952L12.7333 7.66854L12.3587 8.12186C12.3441 8.1352 12.3374 8.15254 12.332 8.17521C12.332 8.19521 12.3374 8.21521 12.3414 8.23254C12.3507 8.25121 12.3653 8.27255 12.3813 8.27921C12.3987 8.28855 12.4173 8.29655 12.4413 8.29655H16.1654C16.7307 8.29655 17.4534 8.79387 17.408 9.54854C17.408 9.89521 17.2734 10.2219 17.0361 10.4619C16.7987 10.7045 16.4773 10.8419 16.1427 10.8419H10.312C9.92935 10.8419 8.89736 10.8846 8.60669 9.96989C8.54802 9.78055 8.53868 9.57654 8.58268 9.37654C8.66535 9.08721 8.79733 8.81786 8.97599 8.57519C9.26799 8.12186 9.58803 7.66854 9.90137 7.23254C10.304 6.65921 10.7173 6.09922 11.128 5.51656C11.14 5.49522 11.1453 5.47253 11.1453 5.44987C11.1453 5.4272 11.14 5.40187 11.128 5.38187L9.64266 3.57519C9.63466 3.56053 9.62405 3.54452 9.60539 3.54052C9.59205 3.53252 9.57736 3.53255 9.56136 3.53255C9.54536 3.53255 9.52801 3.53252 9.51335 3.54052C9.50001 3.54452 9.48804 3.56053 9.47738 3.57519C9.08138 4.12186 7.34536 6.55389 6.97469 7.0459C6.60402 7.53923 5.68932 7.56856 5.18799 7.0459L2.8667 4.66186C2.85337 4.64853 2.83601 4.63652 2.81201 4.63252C2.79335 4.62719 2.772 4.63255 2.75334 4.63655C2.73734 4.64855 2.71472 4.66187 2.70272 4.68054C2.69205 4.69387 2.68669 4.71653 2.68669 4.73653V9.32853C2.69202 9.6512 2.60003 9.96989 2.4187 10.2406C2.24003 10.5059 1.98398 10.7099 1.68132 10.8219C1.49065 10.8899 1.28405 10.9085 1.08805 10.8805C0.888053 10.8525 0.697316 10.7766 0.531982 10.6539C0.367982 10.5339 0.232024 10.3792 0.141357 10.1912C0.0440241 10.0085 0 9.80321 0 9.59521V1.34989C0.008 1.04989 0.116061 0.767194 0.296061 0.535193C0.477395 0.30186 0.725383 0.131225 1.00138 0.0512247C1.24538 -0.0167751 1.49605 -0.0167751 1.73071 0.0512247C1.97338 0.117891 2.19198 0.248554 2.36532 0.429888L5.93205 4.0872C5.93871 4.10053 5.95472 4.10586 5.96672 4.11519C5.98005 4.12186 5.99468 4.12186 6.01335 4.12186C6.02668 4.12186 6.04002 4.11521 6.05469 4.10587C6.06669 4.09787 6.07734 4.08721 6.08667 4.07255L8.62004 0.480547C8.7347 0.33388 8.88405 0.216533 9.04671 0.133866C9.21205 0.0565329 9.39602 0.0125313 9.58268 0.00719833H16.1654C16.344 0.00719833 16.5227 0.0511932 16.6854 0.127193C16.8494 0.203193 16.996 0.316552 17.1147 0.452552C17.2307 0.589885 17.324 0.756533 17.3747 0.932532C17.4227 1.1072 17.4427 1.29919 17.4147 1.47786C17.3694 1.79786 17.2161 2.08453 16.9734 2.29386C16.7361 2.50453 16.4294 2.61255 16.116 2.61255H12.432C12.4147 2.61255 12.3947 2.61656 12.3761 2.62589C12.3654 2.63523 12.3507 2.64988 12.3414 2.66455C12.3321 2.68188 12.332 2.70188 12.332 2.72188C12.332 2.74055 12.3373 2.76054 12.344 2.77254Z"
            fill="#FFF0DA"
    ></path>
</svg>